<svg xmlns="http://www.w3.org/2000/svg" width="50" height="20" id="svg7539"
   version="1.1">
   <defs id="defs7541">
      <linearGradient id="linearGradient4695-1-4-3-5-0-6">
         <stop id="stop4697-9-9-7-0-1-5" offset="0" stop-color="#000"
            stop-opacity="1" />
         <stop id="stop4699-5-8-9-0-4-0" offset="1" stop-color="#000"
            stop-opacity="0" />
      </linearGradient>
      <linearGradient id="linearGradient3768-6">
         <stop offset="0" id="stop3770-0" stop-color="#0f0f0f"
            stop-opacity="1" />
         <stop id="stop3778-6" offset=".078" stop-color="#171717"
            stop-opacity="1" />
         <stop offset=".974" id="stop3774-2" stop-color="#171717"
            stop-opacity="1" />
         <stop offset="1" id="stop3776-2" stop-color="#1b1b1b"
            stop-opacity="1" />
      </linearGradient>
      <linearGradient id="linearGradient3969-0-4">
         <stop offset="0" id="stop3971-2-6" stop-color="#353537"
            stop-opacity="1" />
         <stop offset="1" id="stop3973-0-1" stop-color="#4d4f52"
            stop-opacity="1" />
      </linearGradient>
      <linearGradient id="linearGradient3938">
         <stop id="stop3940" offset="0" stop-color="#fff" stop-opacity="0" />
         <stop id="stop3942" offset="1" stop-color="#fff" stop-opacity=".549" />
      </linearGradient>
      <linearGradient id="linearGradient6523">
         <stop id="stop6525" offset="0" stop-color="#1a1a1a" stop-opacity="1" />
         <stop id="stop6527" offset="1" stop-color="#1a1a1a" stop-opacity="0" />
      </linearGradient>
      <linearGradient id="linearGradient3938-6">
         <stop id="stop3940-4" offset="0" stop-color="#bebebe"
            stop-opacity="1" />
         <stop id="stop3942-8" offset="1" stop-color="#fff" stop-opacity="1" />
      </linearGradient>
   </defs>
   <g id="layer1" transform="translate(-120 88)">
      <g transform="translate(-886 -418)" id="switch-dark" display="inline"
         opacity="1">
         <g id="layer1-9-13" transform="matrix(-1 0 0 1 1177 420)">
            <g transform="translate(120 -117)" id="switch-active-2-2"
               display="inline">
               <g id="g3900-12-8" transform="translate(0 -1004.362)"
                  fill-opacity="1" fill-rule="nonzero" stroke="none">
                  <rect id="rect2987-07-4" width="50" height="20" x="1"
                     y="1031.362" ry="11" rx="11" fill="#5b5b5b" />
                  <circle id="path3759-7-4" cx="41" cy="1041.362" r="9"
                     fill="#353535" />
               </g>
            </g>
         </g>
         <path
            d="M1043.003 337h.773a.778.778 0 01.515.234l1.711 1.711 1.735-1.71c.199-.174.335-.23.515-.235h.75v.75c0 .215-.026.413-.187.563l-1.711 1.71 1.687 1.688a.76.76 0 01.211.539v.75h-.75a.761.761 0 01-.539-.21l-1.71-1.712-1.712 1.711a.76.76 0 01-.539.211h-.75v-.75c0-.199.07-.398.211-.54l1.711-1.687-1.71-1.71a.681.681 0 01-.212-.563V337z"
            id="path10839-9-8-2-2-5-46"
            style="line-height:normal;-inkscape-font-specification:'Andale Mono';text-indent:0;text-align:start;text-decoration-line:none;text-transform:none;block-progression:tb;marker:none"
            color="#bebebe" font-style="normal" font-variant="normal"
            font-weight="400" font-stretch="normal" font-size="medium"
            font-family="Andale Mono" text-decoration="none"
            letter-spacing="normal" word-spacing="normal" direction="ltr"
            writing-mode="lr-tb" text-anchor="start" display="inline"
            overflow="visible" visibility="visible" opacity="1" fill="#353535"
            fill-opacity="1" fill-rule="nonzero" stroke="none"
            stroke-width="1.781" />
      </g>
   </g>
</svg>