<svg xmlns="http://www.w3.org/2000/svg" width="35" height="200" id="svg2" version="1.1"><g id="layer1" transform="translate(0 -852.362)" fill-opacity="1"><path d="M3 852.362c-1.662 0-3 1.338-3 3v194c0 1.662 1.338 3 3 3h33c1.662 0 3-1.338 3-3v-194c0-1.662-1.338-3-3-3H3zm0 1h33c1.108 0 2 .892 2 2v194c0 1.108-.892 2-2 2H3c-1.108 0-2-.892-2-2v-194c0-1.108.892-2 2-2z" id="rect3810" opacity=".45" fill="#000" stroke="#102b68" stroke-width="0" stroke-linecap="butt" stroke-linejoin="miter" stroke-miterlimit="4" stroke-opacity="1" stroke-dasharray="none" stroke-dashoffset="0"/><rect rx="2" id="rect3812" width="37" height="198" x="1" y="853.362" ry="2" opacity=".3" fill="#000" stroke="#102b68" stroke-width="0" stroke-linecap="butt" stroke-linejoin="miter" stroke-miterlimit="4" stroke-dasharray="none" stroke-dashoffset="0" stroke-opacity="1"/><g id="g3917" fill="#bababa" stroke="#102b68" stroke-width="0" stroke-linecap="butt" stroke-linejoin="miter" stroke-miterlimit="4" stroke-opacity="1" stroke-dasharray="none" stroke-dashoffset="0"><rect ry="1.143" y="944.362" x="17" height="16" width="2" id="rect3897" opacity="1"/><rect transform="rotate(90)" ry="1.143" y="-26" x="951.362" height="16" width="2" id="rect3897-6" opacity="1"/></g></g></svg>