<svg xmlns="http://www.w3.org/2000/svg" version="1.0" id="Foreground" x="0"
  y="0" width="26" height="26" viewBox="0 0 18.909 18.909" xml:space="preserve">
  <circle id="path3808-4" cx="9.455" cy="10.182" r="8" opacity=".1" fill="#000"
    fill-opacity="1" stroke="#f70505" stroke-width="0" stroke-linejoin="round"
    stroke-miterlimit="4" stroke-dasharray="none" stroke-dashoffset="0"
    stroke-opacity="1" />
  <circle id="path3808" cx="9.455" cy="9.455" r="8" opacity="1" fill="#d8354a"
    fill-opacity="1" stroke="#f70505" stroke-width="0" stroke-linejoin="round"
    stroke-miterlimit="4" stroke-dasharray="none" stroke-dashoffset="0"
    stroke-opacity="1" />
  <g id="g27275-6-6" transform="matrix(.72727 0 0 .72727 4.205 3.538)"
    display="inline" fill="#fff" fill-opacity="1">
    <g transform="translate(-41 -760)" id="g27277-1-1" display="inline"
      fill="#fff" fill-opacity="1">
      <path
        d="M44.226 764.172h1.032c.255.011.51.129.687.313l2.281 2.281 2.313-2.281c.266-.23.447-.306.687-.313h1v1c0 .287-.034.55-.25.75l-2.28 2.281 2.25 2.25c.187.189.28.454.28.72v1h-1c-.265 0-.53-.094-.718-.282l-2.282-2.281-2.28 2.281a1.015 1.015 0 01-.72.281h-1v-1c0-.265.094-.53.282-.719l2.281-2.25-2.281-2.28a.909.909 0 01-.282-.75v-1z"
        id="path27279-0-5"
        style="line-height:normal;-inkscape-font-specification:'Andale Mono';text-indent:0;text-align:start;text-decoration-line:none;text-transform:none;block-progression:tb;marker:none"
        color="#bebebe" font-style="normal" font-variant="normal"
        font-weight="400" font-stretch="normal" font-size="medium"
        font-family="Andale Mono" text-decoration="none" letter-spacing="normal"
        word-spacing="normal" direction="ltr" writing-mode="lr-tb"
        text-anchor="start" display="inline" overflow="visible"
        visibility="visible" fill="#fff" fill-opacity="1" fill-rule="nonzero"
        stroke="none" stroke-width="1.781" />
    </g>
  </g>
</svg>