<svg xmlns="http://www.w3.org/2000/svg" width="32" height="23" id="svg5386" version="1.1"><defs id="defs5388"><clipPath clipPathUnits="userSpaceOnUse" id="clipPath4180"><path transform="scale(1 -1)" id="rect4182" opacity=".45" fill="#000" fill-opacity="1" stroke="none" stroke-width="1" stroke-linecap="round" stroke-linejoin="miter" stroke-miterlimit="4" stroke-dasharray="none" stroke-dashoffset="0" stroke-opacity="1" d="M-7-1052.162h48v23H-7z"/></clipPath></defs><g id="layer1" transform="translate(0 -1020.362)"><g id="g4146" clip-path="url(#clipPath4180)" transform="translate(0 -8.8)" fill-opacity="1" stroke-width="1" stroke-linecap="round" stroke-linejoin="miter" stroke-miterlimit="4" stroke-dasharray="none" stroke-dashoffset="0" stroke-opacity="1"><rect ry="2" rx="2" y="1024.862" x="4.5" height="22" width="23" id="rect4164-4-3" display="inline" opacity=".72" fill="none" stroke="#000"/><rect ry="1.4" rx="1.4" y="1025.362" x="5" height="21" width="22" id="rect4164" display="inline" opacity=".95" fill="#3c4049" stroke="none"/><g id="g4271" transform="translate(-426 658.362)" display="inline" opacity=".75" fill="none" stroke="#000"><rect id="rect4164-4-7-5-3-8-8" width="31" height="31" x="426.5" y="362.5" rx="8" ry="8" display="inline" opacity=".02"/><rect id="rect4164-4-7-5-3-8" width="29" height="29" x="427.5" y="363.5" rx="7" ry="7" display="inline" opacity=".07"/><rect id="rect4164-4-7-5-3" width="27" height="27" x="428.5" y="364.5" rx="6" ry="6" display="inline" opacity=".13"/><rect id="rect4164-4-7-5" width="25" height="25" x="429.5" y="365.5" rx="5" ry="5" display="inline" opacity=".2"/><path d="M431.648 388.305a3.983 3.983 0 002.852 1.195h15c1.12 0 2.127-.458 2.852-1.195-.26.122-.545.195-.852.195h-19c-.306 0-.592-.073-.852-.195z" id="rect4164-4-7" display="inline" opacity=".25"/></g></g></g></svg>