<svg xmlns="http://www.w3.org/2000/svg" width="32" height="84" id="svg5386"
   version="1.1">
   <defs id="defs5388">
      <clipPath clipPathUnits="userSpaceOnUse" id="clipPath4154">
         <rect transform="scale(1 -1)" ry="1.5" rx="1.5" y="-992.362" x="-5.5"
            height="24.5" width="43" id="rect4156" opacity="1" fill="#5294e2"
            fill-opacity="1" stroke="none" stroke-width="1"
            stroke-linecap="round" stroke-linejoin="miter" stroke-miterlimit="4"
            stroke-dasharray="none" stroke-dashoffset="0" stroke-opacity="1" />
      </clipPath>
   </defs>
   <g id="layer1" transform="translate(0 -968.362)" fill-opacity="1"
      stroke-width="1" stroke-linecap="round" stroke-linejoin="miter"
      stroke-miterlimit="4" stroke-dasharray="none" stroke-dashoffset="0"
      stroke-opacity="1">
      <rect id="rect4164-4-3" width="23" height="73.999" x="4.5" y="972.863"
         rx="2" ry="2" display="inline" opacity=".64" fill="none"
         stroke="#000" />
      <rect id="rect4164" width="22" height="21" x="5" y="973.363" rx="1.4"
         ry="2.046" clip-path="url(#clipPath4154)"
         transform="matrix(1 0 0 .6842 0 307.388)" display="inline" opacity="1"
         fill="#323644" stroke="none" />
      <g transform="translate(-426 606.362)" id="g4271" display="inline"
         opacity=".65" fill="none" stroke="#000">
         <rect ry="8" rx="8" y="362.5" x="426.5" height="83" width="31"
            id="rect4164-4-7-5-3-8-8" display="inline" opacity=".02" />
         <rect ry="7" rx="7" y="363.5" x="427.5" height="81" width="29"
            id="rect4164-4-7-5-3-8" display="inline" opacity=".07" />
         <rect ry="6" rx="6" y="364.5" x="428.5" height="79" width="27"
            id="rect4164-4-7-5-3" display="inline" opacity=".13" />
         <rect ry="5" rx="5" y="365.5" x="429.5" height="77" width="25"
            id="rect4164-4-7-5" display="inline" opacity=".2" />
         <path id="rect4164-4-7"
            d="M431.648 440.305a3.983 3.983 0 002.852 1.195h15c1.12 0 2.127-.458 2.852-1.195-.26.122-.545.195-.852.195h-19c-.307 0-.593-.073-.852-.195z"
            display="inline" opacity=".25" />
      </g>
   </g>
</svg>