<svg xmlns="http://www.w3.org/2000/svg" viewBox="0 0 892 892" height="32" width="32">
  <path
    d="M0 446c0 246.32 199.68 446 446 446s446-199.68 446-446S692.32 0 446 0 0 199.68 0 446z"
    fill="#34c63b" />
  <path
    d="M445.89 34.89A411.16 411.16 0 0043.17 364.42C4.35 556 105.84 748.49 285.89 824.7a411.17 411.17 0 10160-789.81z"
    fill="#39ea49" />
  <path fill="#3c4d5e"
    d="M351.39 247.74a25.33 25.33 0 0118.49-7.67L628.21 238A25.27 25.27 0 01654 263.79l-2 258.29a25.85 25.85 0 01-7.68 18.49 25.1 25.1 0 01-18.49 7.67 24.82 24.82 0 01-18.38-7.4L351.16 284.57a24.37 24.37 0 01-7.4-18.38 25.28 25.28 0 017.63-18.46zM540.61 644.29a25.31 25.31 0 01-18.47 7.64L263.79 654A25.28 25.28 0 01238 628.21l2-258.29a25.83 25.83 0 017.67-18.47 25.09 25.09 0 0118.49-7.67 24.78 24.78 0 0118.38 7.4l256.3 256.25a24.37 24.37 0 017.4 18.38 25.33 25.33 0 01-7.63 18.48z" />
</svg>